<?xml version="1.0" encoding="UTF-8"?>
<svg id="Calque_2" data-name="Calque 2" xmlns="http://www.w3.org/2000/svg" viewBox="0 0 56.61 56.61">
  <defs>
    <style>
      .cls-1 {
        fill: #F9945d;
        stroke-width: 0px;
      }
    </style>
  </defs>
  <g id="Calque_1-2" data-name="Calque 1">
    <g>
      <path class="cls-1" d="M43.95,27.5c7.09-.57,12.66-6.5,12.66-13.73,0-7.61-6.17-13.78-13.78-13.78s-13.16,5.57-13.73,12.66c-.03.19-.05.38-.05.58v10.55c0,2.08,1.69,3.77,3.77,3.77h10.55c.2,0,.39-.02.58-.05Z"/>
      <path class="cls-1" d="M29.11,43.95c.57,7.09,6.5,12.66,13.73,12.66,7.61,0,13.78-6.17,13.78-13.78s-5.57-13.16-12.66-13.73c-.19-.03-.38-.05-.58-.05h-10.55c-2.08,0-3.77,1.69-3.77,3.77v10.55c0,.2.02.39.05.58Z"/>
      <path class="cls-1" d="M12.66,29.11C5.57,29.68,0,35.6,0,42.84c0,7.61,6.17,13.78,13.78,13.78s13.16-5.57,13.73-12.66c.03-.19.05-.38.05-.58v-10.55c0-2.08-1.69-3.77-3.77-3.77h-10.55c-.2,0-.39.02-.58.05Z"/>
      <path class="cls-1" d="M27.5,12.66C26.93,5.57,21.01,0,13.78,0,6.17,0,0,6.17,0,13.78c0,7.23,5.57,13.16,12.66,13.73.19.03.38.05.58.05h10.55c2.08,0,3.77-1.69,3.77-3.77v-10.55c0-.2-.02-.39-.05-.58Z"/>
    </g>
  </g>
</svg>